<svg id="Capa_1" enable-background="new 0 0 511.865 511.865" height="512" viewBox="0 0 511.865 511.865" width="512" xmlns="http://www.w3.org/2000/svg"><g><g><path d="m108.934 121.865h240v320h-240z" fill="#ffda8f"/><path d="m178.734 47.885.01-.01c13.31-23.31 38.72-38.7 67.42-37.84 37.29 1.11 67.41 29.26 72.13 65.09 5.01-1.74 10.42-2.61 16.04-2.44 24.85.74 44.39 21.48 43.65 46.32-.74 24.796-21.425 44.377-46.32 43.64-20.15-.6-36.81-14.35-41.99-32.78h-30.74v90c0 16.57-13.43 30-30 30s-30-13.43-30-30v-30c0-16.57-13.43-30-30-30s-30 13.43-30 30-13.43 30-30 30-30-13.43-30-30v-60c-3.66-8.47-5.92-14.29-6-23-.24-24.95 13.98-51.94 37.62-63.76 22.58-11.29 48.62-8.7 68.18 4.78z" fill="#fff9e1"/><path d="m348.934 441.865c16.57 0 30 13.43 30 30s-13.43 30-30 30h-240c-16.57 0-30-13.43-30-30s13.43-30 30-30z" fill="#c1b0b5"/></g><g><path d="m68.934 189.865c0 18.604 12.767 34.282 30 38.734v204.532c-17.233 4.452-30 20.13-30 38.734 0 22.056 17.944 40 40 40h75c5.523 0 10-4.477 10-10s-4.477-10-10-10h-75c-11.028 0-20-8.972-20-20s8.972-20 20-20h240c11.028 0 20 8.972 20 20s-8.972 20-20 20h-75c-5.523 0-10 4.477-10 10s4.477 10 10 10h75c22.056 0 40-17.944 40-40 0-18.604-12.767-34.282-30-38.734v-47.266h20c38.598 0 70-31.402 70-70v-66c0-38.598-31.402-70-70-70h-20v-13.689c17.269-9.21 28.451-26.929 29.045-46.873.905-30.384-22.956-55.708-53.343-56.614-2.88-.087-5.738.048-8.559.402-9.621-36.024-41.81-61.927-79.614-63.052-28.073-.853-54.395 12.131-70.855 34.37-21.643-11.017-47.455-11.283-69.526-.249-25.693 12.847-43.437 42.783-43.147 72.796.09 9.773 2.504 16.728 6 24.961v57.948zm80 0c0-11.028 8.972-20 20-20s20 8.972 20 20v30c0 22.056 17.944 40 40 40s40-17.944 40-40v-80h13.72c8.438 19.263 27.168 32.134 48.714 32.775 2.547.074 5.071-.032 7.566-.299v259.524h-220v-203.266c17.233-4.451 30-20.129 30-38.734zm230 10c27.57 0 50 22.43 50 50v66c0 27.57-22.43 50-50 50h-20v-166zm-263.908-147.815c26.94-13.472 60.052-3.754 75.227 22.78 2.742 4.794 8.851 6.459 13.645 3.716 4.794-2.742 6.458-8.851 3.716-13.645-4.168-7.289-9.357-13.716-15.482-19.19 12.619-16.637 32.504-26.307 53.734-25.68 32.043.954 58.334 24.673 62.513 56.4.393 2.98 2.105 5.626 4.664 7.205 2.559 1.578 5.691 1.922 8.531.936 3.987-1.384 8.182-2.024 12.462-1.891 19.333.576 34.528 16.681 33.952 36.026-.577 19.365-16.664 34.506-36.027 33.942-15.379-.458-28.504-10.701-32.66-25.49-1.212-4.314-5.146-7.294-9.627-7.294h-30.74c-5.523 0-10 4.477-10 10v90c0 11.028-8.972 20-20 20s-20-8.972-20-20v-30c0-22.056-17.944-40-40-40s-40 17.944-40 40c0 11.028-8.972 20-20 20s-20-8.972-20-20v-60c0-1.364-.279-2.714-.82-3.967-3.555-8.227-5.12-12.522-5.18-19.129-.219-22.661 12.979-45.163 32.092-54.719z"/><path d="m168.934 385.865c5.523 0 10-4.477 10-10v-66c0-5.523-4.477-10-10-10s-10 4.477-10 10v66c0 5.523 4.477 10 10 10z"/><path d="m228.934 385.865c5.523 0 10-4.477 10-10v-66c0-5.523-4.477-10-10-10s-10 4.477-10 10v66c0 5.523 4.477 10 10 10z"/><path d="m288.934 385.865c5.523 0 10-4.477 10-10v-66c0-5.523-4.477-10-10-10s-10 4.477-10 10v66c0 5.523 4.477 10 10 10z"/><circle cx="228.934" cy="501.865" r="10"/></g></g></svg>