<svg id="Layer_5" enable-background="new 0 0 64 64" height="512" viewBox="0 0 64 64" width="512" xmlns="http://www.w3.org/2000/svg"><g><path d="m17.599 44.909c-.133-1.32-.288-2.643-.466-3.964-.372.034-.749.055-1.133.055-5.514 0-10-3.589-10-8 0-4.039 3.764-7.38 8.632-7.915-.195-1.384-.353-2.709-.464-3.956-6.863.771-12.168 5.778-12.168 11.871 0 6.627 6.268 12 14 12 .543 0 1.074-.038 1.599-.091z"/><circle cx="55" cy="5" r="3"/><circle cx="60" cy="25" r="3"/><circle cx="54" cy="39" r="4"/><circle cx="7" cy="6" r="3"/><circle cx="26" cy="52" r="1"/><circle cx="28" cy="40" r="1"/><path d="m15.17 17h12.83c1.654 0 3 1.346 3 3v10c0 .551.449 1 1 1s1-.449 1-1v-3c0-1.654 1.346-3 3-3s3 1.346 3 3v9c0 .551.449 1 1 1s1-.449 1-1v-16c0-1.654 1.346-3 3-3h5c.592 0 1.151-.261 1.533-.715.387-.461.541-1.049.435-1.656-.138-.787-.81-1.458-1.596-1.596-.606-.107-1.195.048-1.656.435-.455.381-.716.94-.716 1.532h-2c0-1.185.521-2.302 1.429-3.064.164-.138.348-.245.529-.353-.206-1.456-1.447-2.583-2.958-2.583-.397 0-.785.078-1.153.231l-.923.385-.385-.923c-.935-2.243-3.11-3.693-5.539-3.693-1.9 0-3.636.878-4.768 2.368.479.766.768 1.664.768 2.632h-2c0-1.654-1.346-3-3-3s-3 1.346-3 3 1.346 3 3 3v2c-2.757 0-5-2.243-5-5 0-.067.017-.129.02-.195-.551-.506-1.263-.805-2.02-.805-1.654 0-3 1.346-3 3l.018.144.068 1.497-1.408-.511c-.86-.311-1.6-.064-2.129.494-.381.402-.575.929-.546 1.485.055 1.043 1.027 1.891 2.167 1.891z"/><circle cx="37" cy="45" r="1"/><path d="m47.973 19h-3.973c-.551 0-1 .449-1 1v16c0 1.654-1.346 3-3 3s-3-1.346-3-3v-9c0-.551-.449-1-1-1s-1 .449-1 1v3c0 1.654-1.346 3-3 3s-3-1.346-3-3v-10c0-.551-.449-1-1-1h-11.973c.129 3.409.87 7.847 1.657 12.532 1.017 6.049 2.169 12.905 2.303 19.252.021 1.022-.39 2.032-1.127 2.77l-.324.324c-.346.346-.536.805-.536 1.293 0 1.009.82 1.829 1.829 1.829h24.343c1.008 0 1.828-.82 1.828-1.829 0-.488-.19-.947-.536-1.293l-.324-.324c-.738-.738-1.149-1.748-1.127-2.77.134-6.347 1.287-13.203 2.303-19.252.788-4.685 1.528-9.123 1.657-12.532zm-29.804 2.095 1.991-.19c.06.629.135 1.287.223 1.969l-1.984.253c-.089-.704-.168-1.383-.23-2.032zm1.49 10.12c-.354-2.11-.698-4.157-.98-6.069l1.979-.292c.28 1.899.622 3.934.972 6.016.489 2.908.992 5.901 1.415 8.995l-1.981.271c-.42-3.064-.921-6.042-1.405-8.921zm6.341 23.785c-1.654 0-3-1.346-3-3s1.346-3 3-3 3 1.346 3 3-1.346 3-3 3zm2-12c-1.654 0-3-1.346-3-3s1.346-3 3-3 3 1.346 3 3-1.346 3-3 3zm9 5c-1.654 0-3-1.346-3-3s1.346-3 3-3 3 1.346 3 3-1.346 3-3 3z"/><path d="m47.882 54.272c.07.292.118.591.118.899 0 2.112-1.717 3.829-3.829 3.829h-24.342c-2.112 0-3.829-1.717-3.829-3.829 0-.308.048-.607.118-.899-5.776 1.086-7.118 2.422-7.118 2.728 0 1.196 7.825 4 23 4s23-2.804 23-4c0-.306-1.342-1.642-7.118-2.728z"/></g></svg>